<?xml version="1.0" encoding="UTF-8"?>
<svg width="29px" height="29px" viewBox="0 0 29 29" version="1.1" xmlns="http://www.w3.org/2000/svg" xmlns:xlink="http://www.w3.org/1999/xlink">
    <!-- Generator: Sketch 47.1 (45422) - http://www.bohemiancoding.com/sketch -->
    <title>Linkedin</title>
    <desc>Created with Sketch.</desc>
    <defs></defs>
    <g id="Welcome" stroke="none" stroke-width="1" fill="none" fill-rule="evenodd">
        <g id="Desktop-HD" transform="translate(-177.000000, -539.000000)">
            <g id="Card" transform="translate(77.000000, 73.000000)">
                <g id="Social-Buttons" transform="translate(100.000000, 466.000000)">
                    <g id="Linkedin">
                        <g>
                            <circle id="Oval-1-Copy-5" fill="#FFFFFF" cx="14.5" cy="14.5" r="14.5"></circle>
                            <path d="M9.00053466,10 C10.1047942,10 11,9.32919619 11,8.50080625 C11,7.67168336 10.1047942,7 9.00053466,7 C7.89520585,7 7,7.67168336 7,8.50080625 C7,9.32919619 7.89520585,10 9.00053466,10" id="Fill-182" fill="#2E2E35"></path>
                            <polygon id="Fill-183" fill="#2E2E35" points="7 21 10 21 10 12 7 12"></polygon>
                            <path d="M15.3382057,16.7319682 C15.3382057,15.6202257 15.8614355,14.5330547 17.1125359,14.5330547 C18.3636364,14.5330547 18.6712622,15.6202257 18.6712622,16.7053907 L18.6712622,22 L22,22 L22,16.488926 C22,12.6600919 19.7486172,12 18.3636364,12 C16.9798183,12 16.2165673,12.4705391 15.3382057,13.6106979 L15.3382057,12.3055579 L12,12.3055579 L12,22 L15.3382057,22 L15.3382057,16.7319682 Z" id="Fill-184" fill="#2E2E35"></path>
                        </g>
                    </g>
                </g>
            </g>
        </g>
    </g>
</svg>